<?xml version="1.0" encoding="utf-8"?>
<!-- Generator: Adobe Illustrator 19.0.0, SVG Export Plug-In . SVG Version: 6.00 Build 0)  -->
<svg version="1.1" id="图层_1" xmlns="http://www.w3.org/2000/svg" xmlns:xlink="http://www.w3.org/1999/xlink" x="0px" y="0px"
	 viewBox="-3.8 -0.8 129.7 32.9" style="enable-background:new -3.8 -0.8 129.7 32.9;" xml:space="preserve">
<style type="text/css">
	.st0{fill:#00AA71;}
	.st1{clip-path:url(#SVGID_2_);}
	.st2{clip-path:url(#SVGID_4_);}
	.st3{clip-path:url(#SVGID_6_);}
	.st4{clip-path:url(#SVGID_8_);}
	.st5{clip-path:url(#SVGID_10_);fill:none;}
	.st6{clip-path:url(#SVGID_12_);fill:#079964;}
	.st7{fill:#079964;}
	.st8{fill:#FFFFFF;}
	.st9{clip-path:url(#SVGID_14_);fill:#CFE3DF;}
	.st10{fill:#1B1813;}
	.st11{fill:#201718;}
	.st12{fill:#CFE3DF;}
	.st13{fill:#063A26;}
	.st14{clip-path:url(#SVGID_16_);fill:#1B1813;}
</style>
<g id="XMLID_1_">
	<g id="XMLID_494_">
		<path id="XMLID_512_" d="M46.9,20.6l2.5,0.3c-0.3,1.5-1.1,2.6-2.1,3.4c-1,0.8-2.3,1.2-3.9,1.2c-2,0-3.6-0.7-4.8-1.9
			c-1.2-1.2-1.8-3-1.8-5.2c0-2.3,0.6-4.1,1.8-5.5c1.2-1.3,2.8-1.9,4.7-1.9s3.4,0.7,4.6,1.9c1.2,1.2,1.8,3,1.8,5.4c0,0.1,0,0.3,0,0.7
			H39.3c0.1,1.6,0.6,2.7,1.3,3.5c0.8,0.8,1.8,1.2,2.9,1.2c0.9,0,1.6-0.2,2.2-0.7C46.1,22.3,46.5,21.5,46.9,20.6z M39.2,16.8h7.7
			c-0.1-1.1-0.4-2-0.9-2.6c-0.8-0.9-1.7-1.3-2.9-1.3c-1.1,0-2,0.3-2.7,1.1C39.7,14.6,39.3,15.6,39.2,16.8z"/>
		<path id="XMLID_509_" d="M52.2,8.7V5.9h2.3v2.7h-2.3V8.7z M52.2,25.1V11.2h2.3v13.8H52.2z"/>
		<path id="XMLID_507_" d="M63.3,23l0.3,2.1c-0.7,0.1-1.2,0.2-1.8,0.2c-0.9,0-1.6-0.1-2-0.4c-0.4-0.2-0.8-0.7-1-1.1
			c-0.2-0.4-0.3-1.3-0.3-2.8V13h-1.7v-1.8h1.7V7.8l2.5-1.5v4.8h2.3v1.8h-2.3v8c0,0.7,0,1.1,0.1,1.3c0.1,0.2,0.2,0.3,0.4,0.4
			s0.4,0.2,0.8,0.2C62.5,23.1,62.8,23,63.3,23z"/>
		<path id="XMLID_505_" d="M74.7,19.9l2.3,0.3c-0.2,1.6-0.9,2.8-1.9,3.7c-1,0.9-2.3,1.3-3.8,1.3c-1.9,0-3.5-0.7-4.6-1.9
			s-1.7-3-1.7-5.4c0-1.5,0.2-2.8,0.8-3.9c0.6-1.1,1.2-2,2.2-2.6c1-0.6,2.1-0.9,3.4-0.9c1.5,0,2.7,0.3,3.7,1.1c1,0.8,1.6,1.8,1.8,3.2
			l-2.2,0.3c-0.2-0.9-0.6-1.7-1.1-2.1c-0.6-0.4-1.2-0.7-2-0.7c-1.2,0-2.1,0.4-2.9,1.2c-0.8,0.9-1.1,2.2-1.1,4c0,1.9,0.3,3.2,1.1,4
			c0.7,0.9,1.7,1.2,2.8,1.2c0.9,0,1.7-0.3,2.3-0.9C74.1,22,74.5,21.2,74.7,19.9z"/>
		<path id="XMLID_503_" d="M78.9,25.1V5.9h2.3V25h-2.3V25.1z"/>
		<path id="XMLID_500_" d="M84.1,18.2c0-2.6,0.7-4.5,2.1-5.7c1.2-1,2.7-1.6,4.4-1.6c1.9,0,3.5,0.7,4.7,1.9c1.2,1.2,1.8,3,1.8,5.1
			c0,1.8-0.2,3.1-0.8,4.2c-0.6,1-1.3,1.8-2.3,2.3c-1,0.6-2.1,0.9-3.4,0.9c-1.9,0-3.5-0.7-4.7-1.9C84.6,22.3,84.1,20.4,84.1,18.2z
			 M86.4,18.2c0,1.8,0.3,3.1,1.1,4s1.8,1.3,2.9,1.3c1.1,0,2.1-0.4,2.9-1.3c0.8-0.9,1.1-2.2,1.1-4c0-1.7-0.3-3-1.1-3.9
			c-0.8-0.9-1.8-1.3-2.9-1.3c-1.2,0-2.1,0.4-2.9,1.3C86.9,15,86.4,16.4,86.4,18.2z"/>
		<path id="XMLID_498_" d="M108.7,25.1v-2c-1.1,1.6-2.6,2.3-4.4,2.3c-0.8,0-1.6-0.1-2.2-0.4s-1.2-0.7-1.6-1.2
			c-0.3-0.6-0.6-1-0.7-1.8c-0.1-0.4-0.1-1.2-0.1-2.2v-8.6h2.3v7.7c0,1.2,0,2,0.1,2.5c0.1,0.7,0.4,1.1,0.9,1.5s1.1,0.6,1.8,0.6
			s1.3-0.2,2-0.6c0.7-0.3,1-0.9,1.3-1.5c0.3-0.6,0.3-1.6,0.3-2.7v-7.4h2.3v13.8C111,25.1,108.7,25.1,108.7,25.1z"/>
		<path id="XMLID_495_" d="M123.6,25.1v-1.8c-0.9,1.3-2.1,2-3.9,2c-1.1,0-2.1-0.3-3-0.9c-0.9-0.6-1.7-1.5-2.1-2.6
			c-0.4-1.1-0.8-2.3-0.8-3.8c0-1.3,0.2-2.7,0.7-3.8s1.1-2,2.1-2.6s1.9-0.9,3.1-0.9c0.8,0,1.6,0.2,2.2,0.6s1.2,0.8,1.6,1.3V5.9h2.3
			V25h-2.2V25.1z M116.1,18.2c0,1.8,0.3,3.1,1.1,4c0.8,0.9,1.7,1.3,2.7,1.3c1,0,1.9-0.4,2.6-1.2c0.7-0.9,1.1-2.1,1.1-3.8
			c0-1.9-0.3-3.2-1.1-4.1c-0.8-0.9-1.7-1.3-2.7-1.3s-1.9,0.4-2.6,1.2C116.6,15,116.1,16.3,116.1,18.2z"/>
	</g>
	<g id="XMLID_12_">
		<g id="XMLID_236_">
			<g id="XMLID_481_">
				<g id="XMLID_489_">
					<path id="XMLID_493_" class="st0" d="M27,9.2c0,0,2-1.7,3.8-1.3c1.1,0.3,4,1.9-2.7,13.4c-0.3,0.2-2.1-0.9-3.4-0.4
						C23.5,21.3,27,9.2,27,9.2z"/>
					<path id="XMLID_490_" d="M27.9,21.5c-0.2,0-0.6-0.1-0.9-0.2c-0.7-0.2-1.6-0.6-2.2-0.3c-0.1,0-0.2,0-0.3-0.1
						c-0.8-0.8,1.9-9.8,2.5-11.6l0,0l0,0C27,9.1,29,7.5,30.8,7.9c0.7,0.2,1.2,0.7,1.5,1.3c0.8,2.1-0.6,6.3-4.1,12.3l0,0
						C28.1,21.5,28,21.5,27.9,21.5z M25.3,20.6c0.7,0,1.2,0.2,1.8,0.4c0.3,0.1,0.8,0.2,0.9,0.2c4.4-7.4,4.6-10.6,4-12.1
						c-0.2-0.6-0.7-1-1.2-1.1c-1.6-0.2-3.5,1.1-3.7,1.3c-1.6,5.2-2.9,11.2-2.5,11.4C24.9,20.6,25.1,20.6,25.3,20.6z"/>
				</g>
				<path id="XMLID_488_" d="M25.5,18.6c0,0,1.1,1.3,1.8,1c0.8-0.3,2.5-5.5,1.6-6.9c0.4,0.8,1,4.9-0.9,7.3c-1.9,0.6-2.5,0.9-2.7-0.9
					C25.1,17.3,25.5,18.6,25.5,18.6z"/>
				<g id="XMLID_485_">
					<g>
						<defs>
							<path id="SVGID_1_" d="M27,9.2c0,0,2-1.7,3.8-1.3c1.1,0.3,4,1.9-2.7,13.4c-0.3,0.2-2.1-0.9-3.4-0.4C23.5,21.3,27,9.2,27,9.2z
								"/>
						</defs>
						<clipPath id="SVGID_2_">
							<use xlink:href="#SVGID_1_"  style="overflow:visible;"/>
						</clipPath>
						<path id="XMLID_487_" class="st1" d="M26.3,9.2c0,0,3-1.2,3.9-0.9c0.9,0.3,2.7,1.2,0.4,7.4c-1.2,3.7-0.3,3.4-0.3,3.4l4-10.9
							l-5.6-1.9L26.3,9.2z"/>
					</g>
				</g>
				<g id="XMLID_482_">
					<g>
						<defs>
							<path id="SVGID_3_" d="M27,9.2c0,0,2-1.7,3.8-1.3c1.1,0.3,4,1.9-2.7,13.4c-0.3,0.2-2.1-0.9-3.4-0.4C23.5,21.3,27,9.2,27,9.2z
								"/>
						</defs>
						<clipPath id="SVGID_4_">
							<use xlink:href="#SVGID_3_"  style="overflow:visible;"/>
						</clipPath>
						<path id="XMLID_484_" class="st2" d="M30.9,16.1c0,0-2.6,4.5-2.8,4.6c-0.3,0.1-0.3,0.4-1.3,0.2c-1-0.2,0.2,0.8,0.2,0.8l3.1-1
							L30.9,16.1z"/>
					</g>
				</g>
			</g>
			<g id="XMLID_468_">
				<g id="XMLID_476_">
					<path id="XMLID_480_" class="st0" d="M1.6,9.2c0,0-2-1.7-3.8-1.3c-1.1,0.3-4,1.9,2.7,13.4c0.3,0.2,2.1-0.9,3.4-0.4
						C5.1,21.3,1.6,9.2,1.6,9.2z"/>
					<path id="XMLID_477_" d="M0.7,21.5c-0.1,0-0.1,0-0.2-0.1l0,0c-3.6-6-4.9-10.2-4.1-12.3C-3.4,8.4-2.8,8-2.2,7.8
						c1.9-0.2,3.8,1.3,3.9,1.5l0,0l0,0C2.3,11,4.9,20.1,4.1,20.8c-0.1,0.1-0.2,0.1-0.3,0.1c-0.7-0.2-1.6,0.1-2.2,0.3
						C1.3,21.4,1,21.5,0.7,21.5z M0.7,21.2c0.1,0,0.6-0.1,0.9-0.2c0.7-0.2,1.6-0.6,2.3-0.3c0.6-0.2-0.9-6-2.3-11.3
						C1.3,9.1-0.5,7.8-2.2,8c-0.6,0.2-1,0.6-1.2,1.2C-4,10.6-3.6,13.8,0.7,21.2z"/>
				</g>
				<path id="XMLID_475_" d="M3.1,18.6c0,0-1.1,1.3-1.8,1c-0.8-0.3-2.5-5.5-1.6-7c-0.4,0.8-1,4.9,0.9,7.3c1.9,0.6,2.5,0.9,2.7-0.9
					C3.6,17.3,3.1,18.6,3.1,18.6z"/>
				<g id="XMLID_472_">
					<g>
						<defs>
							<path id="SVGID_5_" d="M1.6,9.2c0,0-2-1.7-3.8-1.3c-1.1,0.3-4,1.9,2.7,13.4c0.3,0.2,2.1-0.9,3.4-0.4
								C5.1,21.3,1.6,9.2,1.6,9.2z"/>
						</defs>
						<clipPath id="SVGID_6_">
							<use xlink:href="#SVGID_5_"  style="overflow:visible;"/>
						</clipPath>
						<path id="XMLID_474_" class="st3" d="M2.3,9.2c0,0-3-1.2-3.9-0.9c-0.9,0.3-2.7,1.2-0.4,7.4c1.2,3.7,0.3,3.4,0.3,3.4l-4-10.9
							l5.6-1.9L2.3,9.2z"/>
					</g>
				</g>
				<g id="XMLID_469_">
					<g>
						<defs>
							<path id="SVGID_7_" d="M1.6,9.2c0,0-2-1.7-3.8-1.3c-1.1,0.3-4,1.9,2.7,13.4c0.3,0.2,2.1-0.9,3.4-0.4
								C5.1,21.3,1.6,9.2,1.6,9.2z"/>
						</defs>
						<clipPath id="SVGID_8_">
							<use xlink:href="#SVGID_7_"  style="overflow:visible;"/>
						</clipPath>
						<path id="XMLID_471_" class="st4" d="M-2.3,16.1c0,0,2.6,4.5,2.8,4.6c0.3,0.1,0.3,0.4,1.3,0.2c1-0.1-0.1,0.9-0.1,0.9l-3.1-1
							L-2.3,16.1z"/>
					</g>
				</g>
			</g>
			<path id="XMLID_467_" d="M25.5,18.6c0,0,1.1,1.3,1.8,1c0.8-0.3,2.5-5.5,1.6-6.9c0.4,0.8,1,4.9-0.9,7.3c-1.9,0.6-2.5,0.9-2.7-0.9
				C25.1,17.3,25.5,18.6,25.5,18.6z"/>
			<g id="XMLID_464_">
				<g>
					<defs>
						<path id="SVGID_9_" d="M27,9.2c0,0,2-1.7,3.8-1.3c1.1,0.3,4,1.9-2.7,13.4c-0.3,0.2-2.1-0.9-3.4-0.4C23.5,21.3,27,9.2,27,9.2z"
							/>
					</defs>
					<clipPath id="SVGID_10_">
						<use xlink:href="#SVGID_9_"  style="overflow:visible;"/>
					</clipPath>
					<path id="XMLID_466_" class="st5" d="M26.3,9.2c0,0,3-1.2,3.9-0.9c0.9,0.3,2.7,1.2,0.4,7.4c-1.2,3.7-0.3,3.4-0.3,3.4l4-10.9
						l-5.6-1.9L26.3,9.2z"/>
				</g>
			</g>
			<g id="XMLID_456_">
				<path id="XMLID_463_" d="M27.3,14.6c0,8.7-8.8,17.5-13.3,17.5S0.7,23.2,0.7,14.6S3.6-0.8,14.1-0.8S27.3,5.9,27.3,14.6z"/>
				<path id="XMLID_460_" class="st0" d="M26.7,14.6c0,4.1-1.9,8.4-4.5,11.6s-5.8,5.4-7.9,5.4s-5.4-2.1-7.9-5.4s-4.5-7.4-4.5-11.6
					s0.9-8,2.9-10.3s4.4-4,9.4-4s8.6,2.3,9.6,3.5C25.6,6.4,26.7,10.3,26.7,14.6z"/>
				<g id="XMLID_457_">
					<g>
						<defs>
							<path id="SVGID_11_" d="M26.7,14.6c0,4.1-1.9,8.4-4.5,11.6s-5.8,5.4-7.9,5.4s-5.4-2.1-7.9-5.4s-4.5-7.4-4.5-11.6
								s0.9-8,2.9-10.3s4.4-4,9.4-4s8.6,2.3,9.6,3.5C25.6,6.4,26.7,10.3,26.7,14.6z"/>
						</defs>
						<clipPath id="SVGID_12_">
							<use xlink:href="#SVGID_11_"  style="overflow:visible;"/>
						</clipPath>
						<path id="XMLID_459_" class="st6" d="M2.3,19.5c0,0,6.5,10.7,11.6,10.5c5.1-0.2,11.1-7.9,12.2-10.5c-0.4,3.2-4.2,9.6-4.2,9.6
							L13.4,33l-8.8-3.6L2.3,19.5z"/>
					</g>
				</g>
			</g>
			<g id="XMLID_263_">
				<path id="XMLID_455_" class="st7" d="M4.5,9.3c0,0-1,0.7-0.4,2.8C2.7,12.2,3.9,9.6,4.5,9.3z"/>
				<path id="XMLID_454_" class="st8" d="M4.5,9.3c0,0-1.2,0.7-0.6,2.8C3.3,12.2,2.7,10.2,4.5,9.3z"/>
				<g id="XMLID_284_">
					<path id="XMLID_453_" class="st8" d="M5.2,12c0,0-1.7,1-0.4,3.5c0.9,1.1,1.7,1.9,3.5,1.5c0.9-0.2,2.5-1,2.3-2.2
						c-0.2-1.3-3.1-2.5-3.1-2.5L5.2,12z"/>
					<g id="XMLID_285_">
						<g>
							<defs>
								<path id="SVGID_13_" d="M5.2,12c0,0-1.7,1-0.4,3.5c0.9,1.1,1.7,1.9,3.5,1.5c0.9-0.2,2.5-1,2.3-2.2c-0.2-1.3-3.1-2.5-3.1-2.5
									L5.2,12z"/>
							</defs>
							<clipPath id="SVGID_14_">
								<use xlink:href="#SVGID_13_"  style="overflow:visible;"/>
							</clipPath>
							<path id="XMLID_452_" class="st9" d="M5.1,12.3c0,0-1,0.7-1.1,1c-0.1,0.4,1.1,3.5,1.1,3.5l2.3,0.7c0,0,1.9-0.9,2-1.1
								C8.8,17,3.9,17,5.1,12.3z"/>
						</g>
					</g>
				</g>
				<path id="XMLID_268_" class="st10" d="M11.3,15.8L11.3,15.8c-0.4-0.9-2.8-5.5-7.4-3.7c-0.6,0.1-1.2-1.5,0.3-2.7
					c-1,0.7-2.1,2-0.9,3c0,0,0,0,0.1,0C4.1,12.2,8.2,11.1,11.3,15.8z"/>
				<g id="XMLID_265_">
					<circle id="XMLID_267_" class="st11" cx="7.3" cy="14.2" r="0.7"/>
					<circle id="XMLID_266_" class="st8" cx="7" cy="13.9" r="0.2"/>
				</g>
				<path id="XMLID_264_" class="st7" d="M10.3,16.3c0,0-3.9,2.1-5.6,0.7C6.1,18.5,8.3,19,10.3,16.3z"/>
			</g>
			<g id="XMLID_241_">
				<path id="XMLID_262_" class="st7" d="M23.4,9.8c0,0,0.8,1.9,0.9,2.1c0.1,0.1,0.4-0.6,0.4-0.9C24.6,10.7,24.6,9.7,23.4,9.8z"/>
				<g id="XMLID_244_">
					<path id="XMLID_259_" class="st12" d="M23.1,12.7c0,0,1.5,1.6-1.8,3.2c-1.5,0.7-4.1,1-5.5-0.2c0.3-0.4,3.7-2.3,4-2.3
						C20.3,13.4,22.6,12.6,23.1,12.7z"/>
					<path id="XMLID_254_" class="st8" d="M22.7,12.5c0,0,1.5,1.6-1.8,3.2c-1.5,0.7-3.8,1.1-5.2,0c0.4-0.3,3.6-2.3,4-2.3
						C20.2,13.2,22.4,12.3,22.7,12.5z"/>
					<g id="XMLID_246_">
						<circle id="XMLID_248_" class="st11" cx="19.8" cy="14.1" r="0.7"/>
						<circle id="XMLID_247_" class="st8" cx="19.6" cy="13.8" r="0.2"/>
					</g>
				</g>
				<path id="XMLID_243_" d="M24.5,10.3c0,0,0.6,1.9-1.1,1.9c-1.7,0.2-5.1,0.9-8.5,4.1c0.8-0.4,3.8-2.9,9.3-3.9
					C24.5,12.3,25.3,11.6,24.5,10.3z"/>
				<path id="XMLID_242_" class="st7" d="M15.7,16.5c0,0,4.8,1,7.9-1c-1.1,1.8-3,3-3.9,3C18.8,18.4,16.7,17.8,15.7,16.5z"/>
			</g>
			<path id="XMLID_240_" class="st8" d="M10.7,1.6C9,2,7,3.1,5.4,4.8s-2,2.8-1.9,3.1C4,7.2,5,6.1,6.1,5.3S9,3.4,11,2.9
				s4.4-1.2,4.4-1.2S12.4,1.3,10.7,1.6z"/>
			<path id="XMLID_237_" class="st13" d="M18.4,24.5c0,0-2.2,3.4-4.2,3.8s-2.5-0.2-2.9-0.9c0.2,0.7,1.3,3,4.7,0.8
				C17.3,26.8,18.4,24.5,18.4,24.5z"/>
		</g>
		<g id="XMLID_13_">
			<g id="XMLID_147_">
				<path id="XMLID_227_" class="st13" d="M13.6,21.6v1.7l0,0c-0.1,0.1-0.9,0.7-1.1-0.2C12.2,22.3,13.2,21.7,13.6,21.6
					C13.6,21.5,13.6,21.5,13.6,21.6z"/>
				<g id="XMLID_148_">
					<g>
						<defs>
							<path id="SVGID_15_" d="M13.7,21.5v1.6l0,0c-0.1,0.1-0.9,0.8-1.1-0.1C12.2,22.2,13.4,21.6,13.7,21.5
								C13.6,21.5,13.7,21.5,13.7,21.5z"/>
						</defs>
						<clipPath id="SVGID_16_">
							<use xlink:href="#SVGID_15_"  style="overflow:visible;"/>
						</clipPath>
						<path id="XMLID_205_" class="st14" d="M13.6,21.6v1.7l0,0c-0.1,0.1-0.9,0.7-1.1-0.2C12.2,22.3,13.2,21.7,13.6,21.6
							C13.6,21.5,13.6,21.5,13.6,21.6z"/>
					</g>
				</g>
			</g>
			<path id="XMLID_141_" class="st10" d="M15,21.2v1.5l0,0c0.1,0.1,0.8,0.7,1-0.2C16.3,21.7,15.4,21.3,15,21.2L15,21.2z"/>
		</g>
	</g>
</g>
</svg>
